<svg xmlns="http://www.w3.org/2000/svg" version="1.1" xmlns:xlink="http://www.w3.org/1999/xlink" xmlns:svgjs="http://svgjs.dev/svgjs" width="1500" height="1500" viewBox="0 0 1500 1500"><rect width="1500" height="1500" fill="#000000"></rect><g transform="matrix(0.6666666666666666,0,0,0.6666666666666666,249.39393939393938,654.4330735392335)"><svg viewBox="0 0 396 76" data-background-color="#ffffff" preserveAspectRatio="xMidYMid meet" height="287" width="1500" xmlns="http://www.w3.org/2000/svg" xmlns:xlink="http://www.w3.org/1999/xlink"><g id="tight-bounds" transform="matrix(1,0,0,1,0.2400000000000091,-0.039618060880201256)"><svg viewBox="0 0 395.52 76.07923612176039" height="76.07923612176039" width="395.52"><g><svg viewBox="0 0 499.05429293506006 95.99430974358974" height="76.07923612176039" width="395.52"><g transform="matrix(1,0,0,1,103.53429293506011,29.663635058275055)"><svg viewBox="0 0 395.52 36.66703962703963" height="36.66703962703963" width="395.52"><g id="textblocktransform"><svg viewBox="0 0 395.52 36.66703962703963" height="36.66703962703963" width="395.52" id="textblock"><g><svg viewBox="0 0 395.52 36.66703962703963" height="36.66703962703963" width="395.52"><g transform="matrix(1,0,0,1,0,0)"><svg width="395.52" viewBox="3.96 -36.23 502.69 46.61" height="36.66703962703963" data-palette-color="#ffffff"><path d="M27.32-23.07L27.32-23.07Q27.32-20.02 25.87-17.63 24.41-15.23 21.72-13.89 19.02-12.55 15.48-12.55L15.48-12.55 8.62-12.55 8.62 0 3.96 0 3.96-32.93 15.19-32.93Q21-32.93 24.16-30.33 27.32-27.73 27.32-23.07ZM22.63-23L22.63-23Q22.63-29.2 14.62-29.2L14.62-29.2 8.62-29.2 8.62-16.24 14.82-16.24Q18.46-16.24 20.54-18.02 22.63-19.8 22.63-23ZM34.52 0L34.52-36.23 38.94-36.23 38.94-26.71Q38.94-25.27 38.72-21.9L38.72-21.9 38.79-21.9Q41.35-26.9 47.07-26.9L47.07-26.9Q55.61-26.9 55.61-17.6L55.61-17.6 55.61 0 51.19 0 51.19-16.97Q51.19-20.29 49.91-21.9 48.63-23.51 45.82-23.51L45.82-23.51Q42.8-23.51 40.85-21.3 38.91-19.09 38.91-15.31L38.91-15.31 38.91 0 34.52 0ZM86.79-13.23L86.79-13.23Q86.79-6.57 83.72-3.04 80.66 0.49 74.87 0.49L74.87 0.49Q69.21 0.49 66.19-3.08 63.18-6.64 63.18-13.23L63.18-13.23Q63.18-20.04 66.27-23.47 69.36-26.9 75.02-26.9L75.02-26.9Q80.98-26.9 83.88-23.51 86.79-20.12 86.79-13.23ZM82.17-13.23L82.17-13.23Q82.17-18.48 80.5-21.07 78.83-23.66 75.09-23.66L75.09-23.66Q71.31-23.66 69.55-21.02 67.79-18.38 67.79-13.23L67.79-13.23Q67.79-8.11 69.55-5.43 71.31-2.76 74.82-2.76L74.82-2.76Q78.71-2.76 80.44-5.37 82.17-7.98 82.17-13.23ZM98.75-22.95L94.65-22.95 94.65-26.42 98.8-26.42 100.21-33.3 103.14-33.3 103.14-26.42 113.69-26.42 113.69-22.95 103.14-22.95 103.14-7.03Q103.14-5.1 104.18-4.17 105.22-3.25 107.59-3.25L107.59-3.25Q110.86-3.25 114.84-4.08L114.84-4.08 114.84-0.73Q110.71 0.39 106.66 0.39L106.66 0.39Q102.7 0.39 100.72-1.28 98.75-2.95 98.75-6.57L98.75-6.57 98.75-22.95ZM146.79-13.23L146.79-13.23Q146.79-6.57 143.73-3.04 140.66 0.49 134.88 0.49L134.88 0.49Q129.21 0.49 126.2-3.08 123.18-6.64 123.18-13.23L123.18-13.23Q123.18-20.04 126.27-23.47 129.36-26.9 135.02-26.9L135.02-26.9Q140.98-26.9 143.89-23.51 146.79-20.12 146.79-13.23ZM142.18-13.23L142.18-13.23Q142.18-18.48 140.51-21.07 138.83-23.66 135.1-23.66L135.1-23.66Q131.31-23.66 129.56-21.02 127.8-18.38 127.8-13.23L127.8-13.23Q127.8-8.11 129.56-5.43 131.31-2.76 134.83-2.76L134.83-2.76Q138.71-2.76 140.44-5.37 142.18-7.98 142.18-13.23ZM195.03 10.35L195.03 10.35Q190.93 10.35 188.44 8.67 185.95 6.98 185.26 3.83L185.26 3.83 189.76 3.22Q190.17 5.05 191.55 6.04 192.93 7.03 195.18 7.03L195.18 7.03Q201.23 7.03 201.23-0.66L201.23-0.66 201.23-5.4 201.18-5.4Q199.99-2.88 197.86-1.59 195.74-0.29 192.81-0.29L192.81-0.29Q187.97-0.29 185.74-3.45 183.51-6.62 183.51-13.4L183.51-13.4Q183.51-20.31 185.9-23.57 188.29-26.83 193.27-26.83L193.27-26.83Q196.03-26.83 198.07-25.55 200.11-24.27 201.21-21.9L201.21-21.9 201.28-21.9Q201.28-22.63 201.38-24.38 201.47-26.12 201.57-26.42L201.57-26.42 205.75-26.42Q205.6-25.1 205.6-20.95L205.6-20.95 205.6-0.78Q205.6 4.76 203.01 7.56 200.42 10.35 195.03 10.35ZM201.23-13.45L201.23-13.45Q201.23-18.16 199.4-20.86 197.57-23.56 194.37-23.56L194.37-23.56Q191.03-23.56 189.54-21.23 188.05-18.9 188.05-13.45L188.05-13.45Q188.05-9.77 188.67-7.63 189.29-5.49 190.61-4.52 191.93-3.54 194.3-3.54L194.3-3.54Q196.37-3.54 197.95-4.7 199.52-5.86 200.38-8.09 201.23-10.33 201.23-13.45ZM236.9-2.71L236.9-2.71Q237.53-2.71 238.34-2.88L238.34-2.88 238.34-0.15Q236.68 0.24 234.94 0.24L234.94 0.24Q232.5 0.24 231.39-1.04 230.28-2.32 230.13-5.05L230.13-5.05 229.99-5.05Q228.4-2.1 226.24-0.81 224.08 0.49 220.91 0.49L220.91 0.49Q217.05 0.49 215.09-1.61 213.14-3.71 213.14-7.37L213.14-7.37Q213.14-15.89 224.23-16.02L224.23-16.02 229.99-16.11 229.99-17.55Q229.99-20.75 228.69-22.16 227.4-23.56 224.57-23.56L224.57-23.56Q221.69-23.56 220.42-22.53 219.15-21.51 218.9-19.36L218.9-19.36 214.31-19.78Q215.44-26.9 224.64-26.9L224.64-26.9Q229.52-26.9 231.98-24.62 234.43-22.34 234.43-18.02L234.43-18.02 234.43-6.64Q234.43-4.69 234.94-3.7 235.46-2.71 236.9-2.71ZM222.03-2.86L222.03-2.86Q224.37-2.86 226.18-3.98 227.99-5.1 228.99-6.98 229.99-8.86 229.99-10.86L229.99-10.86 229.99-13.04 225.35-12.94Q222.47-12.89 220.95-12.3 219.44-11.72 218.6-10.51 217.76-9.3 217.76-7.3L217.76-7.3Q217.76-5.3 218.84-4.08 219.93-2.86 222.03-2.86ZM257.99-36.23L257.99-3.47 267.27-3.47 267.27 0 243.29 0 243.29-3.47 253.59-3.47 253.59-32.76 246.54-32.76 246.54-36.23 257.99-36.23ZM287.99-36.23L287.99-3.47 297.27-3.47 297.27 0 273.29 0 273.29-3.47 283.6-3.47 283.6-32.76 276.54-32.76 276.54-36.23 287.99-36.23ZM326.73-12.28L307.89-12.28Q307.89-7.84 309.85-5.32 311.82-2.81 315.23-2.81L315.23-2.81Q317.75-2.81 319.64-3.89 321.53-4.98 322.17-6.86L322.17-6.86 326.02-5.76Q324.95-2.73 322.08-1.12 319.21 0.49 315.23 0.49L315.23 0.49Q309.47 0.49 306.37-3.1 303.27-6.69 303.27-13.38L303.27-13.38Q303.27-19.9 306.31-23.4 309.35-26.9 315.09-26.9L315.09-26.9Q320.82-26.9 323.78-23.41 326.73-19.92 326.73-12.87L326.73-12.87 326.73-12.28ZM315.14-23.66L315.14-23.66Q311.86-23.66 309.96-21.52 308.06-19.38 307.93-15.65L307.93-15.65 322.19-15.65Q321.51-23.66 315.14-23.66ZM355.54-26.49L355.54-22.41Q352.8-22.88 350.36-22.88L350.36-22.88Q346.43-22.88 344.02-19.92 341.6-16.97 341.6-12.4L341.6-12.4 341.6 0 337.2 0 337.2-17.11Q337.2-18.97 336.87-21.48 336.54-24 335.93-26.42L335.93-26.42 340.11-26.42Q341.09-23.05 341.28-20.31L341.28-20.31 341.4-20.31Q342.62-23.05 343.8-24.33 344.97-25.61 346.58-26.26 348.19-26.9 350.51-26.9L350.51-26.9Q353.05-26.9 355.54-26.49L355.54-26.49ZM367.16 10.38L367.16 10.38Q365.35 10.38 364.13 10.11L364.13 10.11 364.13 6.81Q365.06 6.96 366.18 6.96L366.18 6.96Q368.11 6.96 369.81 5.52 371.5 4.08 372.68 0.93L372.68 0.93 373.11-0.27 361.64-26.42 366.33-26.42 372.77-10.74Q374.99-5.27 375.17-4.54L375.17-4.54 376.17-7.23 383.73-26.42 388.37-26.42 377.24 0Q375.07 5.74 372.74 8.06 370.4 10.38 367.16 10.38ZM446.91-2.71L446.91-2.71Q447.55-2.71 448.35-2.88L448.35-2.88 448.35-0.15Q446.69 0.24 444.96 0.24L444.96 0.24Q442.52 0.24 441.41-1.04 440.3-2.32 440.15-5.05L440.15-5.05 440-5.05Q438.42-2.1 436.26-0.81 434.1 0.49 430.92 0.49L430.92 0.49Q427.06 0.49 425.11-1.61 423.16-3.71 423.16-7.37L423.16-7.37Q423.16-15.89 434.24-16.02L434.24-16.02 440-16.11 440-17.55Q440-20.75 438.71-22.16 437.42-23.56 434.58-23.56L434.58-23.56Q431.7-23.56 430.43-22.53 429.16-21.51 428.92-19.36L428.92-19.36 424.33-19.78Q425.45-26.9 434.66-26.9L434.66-26.9Q439.54-26.9 441.99-24.62 444.45-22.34 444.45-18.02L444.45-18.02 444.45-6.64Q444.45-4.69 444.96-3.7 445.47-2.71 446.91-2.71ZM432.05-2.86L432.05-2.86Q434.39-2.86 436.2-3.98 438-5.1 439-6.98 440-8.86 440-10.86L440-10.86 440-13.04 435.37-12.94Q432.48-12.89 430.97-12.3 429.46-11.72 428.61-10.51 427.77-9.3 427.77-7.3L427.77-7.3Q427.77-5.3 428.86-4.08 429.95-2.86 432.05-2.86ZM476.65-13.33L476.65-13.33Q476.65 0.49 467.08 0.49L467.08 0.49Q461.07 0.49 459-4L459-4 458.87-4Q458.97-3.81 458.97 0.05L458.97 0.05 458.97 10.38 454.55 10.38 454.55-20.95Q454.55-25.1 454.41-26.42L454.41-26.42 458.68-26.42Q458.7-26.32 458.75-25.7 458.8-25.07 458.86-23.86 458.92-22.66 458.92-22.07L458.92-22.07 459.02-22.07Q460.24-24.63 462.13-25.79 464.03-26.95 467.08-26.95L467.08-26.95Q471.91-26.95 474.28-23.62 476.65-20.29 476.65-13.33ZM472.11-13.33L472.11-13.33Q472.11-18.85 470.62-21.2 469.13-23.56 465.93-23.56L465.93-23.56Q462.24-23.56 460.61-20.89 458.97-18.21 458.97-12.79L458.97-12.79Q458.97-7.59 460.61-5.18 462.24-2.76 465.88-2.76L465.88-2.76Q469.13-2.76 470.62-5.22 472.11-7.69 472.11-13.33ZM506.65-13.33L506.65-13.33Q506.65 0.49 497.08 0.49L497.08 0.49Q491.07 0.49 489-4L489-4 488.88-4Q488.97-3.81 488.97 0.05L488.97 0.05 488.97 10.38 484.55 10.38 484.55-20.95Q484.55-25.1 484.41-26.42L484.41-26.42 488.68-26.42Q488.71-26.32 488.75-25.7 488.8-25.07 488.86-23.86 488.92-22.66 488.92-22.07L488.92-22.07 489.02-22.07Q490.24-24.63 492.14-25.79 494.03-26.95 497.08-26.95L497.08-26.95Q501.91-26.95 504.28-23.62 506.65-20.29 506.65-13.33ZM502.11-13.33L502.11-13.33Q502.11-18.85 500.62-21.2 499.13-23.56 495.93-23.56L495.93-23.56Q492.25-23.56 490.61-20.89 488.97-18.21 488.97-12.79L488.97-12.79Q488.97-7.59 490.61-5.18 492.25-2.76 495.88-2.76L495.88-2.76Q499.13-2.76 500.62-5.22 502.11-7.69 502.11-13.33Z" opacity="1" transform="matrix(1,0,0,1,0,0)" fill="#ffffff" class="wordmark-text-0" data-fill-palette-color="primary" id="text-0"></path></svg></g></svg></g></svg></g></svg></g><g><svg viewBox="0 0 94.8780848880671 95.99430974358974" height="95.99430974358974" width="94.8780848880671"><g><svg xmlns="http://www.w3.org/2000/svg" xmlns:xlink="http://www.w3.org/1999/xlink" version="1.1" x="0" y="0" viewBox="4.366 3.488 92.309 93.395" enable-background="new 0 0 100 100" xml:space="preserve" height="95.99430974358974" width="94.8780848880671" class="icon-icon-0" data-fill-palette-color="accent" id="icon-0"><path d="M42.716 3.488H9.607c-2.894 0-5.241 2.346-5.241 5.241v33.07c0 2.896 2.347 5.241 5.241 5.241h33.109c2.895 0 5.242-2.346 5.242-5.241V8.729C47.958 5.833 45.611 3.488 42.716 3.488zM41.851 37.167c0 2.083-1.689 3.772-3.772 3.772H14.246c-2.083 0-3.772-1.689-3.772-3.772V13.362c0-2.083 1.689-3.772 3.772-3.772h23.833c2.083 0 3.772 1.689 3.772 3.772V37.167z" fill="#ffffff" data-fill-palette-color="accent"></path><path d="M47.958 90.77c0 2.895-2.347 5.241-5.242 5.241H9.607c-2.894 0-5.241-2.347-5.241-5.241V57.698c0-2.895 2.347-5.241 5.241-5.241h33.109c2.895 0 5.242 2.347 5.242 5.241V90.77z" fill="#ffffff" data-fill-palette-color="accent"></path><path d="M91.434 96.883H58.325c-2.895 0-5.24-2.347-5.24-5.24V58.569c0-2.894 2.346-5.24 5.24-5.24h33.108c2.896 0 5.241 2.347 5.241 5.24v33.073C96.675 94.536 94.329 96.883 91.434 96.883zM90.567 63.204c0-2.084-1.689-3.772-3.772-3.772H62.964c-2.084 0-3.773 1.688-3.773 3.772v23.805c0 2.082 1.689 3.771 3.773 3.771h23.831c2.083 0 3.772-1.689 3.772-3.771V63.204z" fill="#ffffff" data-fill-palette-color="accent"></path><path d="M96.675 9.602c0-2.895-2.346-5.241-5.241-5.241H58.325c-2.895 0-5.24 2.347-5.24 5.241v33.071c0 2.894 2.346 5.241 5.24 5.241h33.108c2.896 0 5.241-2.348 5.241-5.241V9.602z" fill="#ffffff" data-fill-palette-color="accent"></path></svg></g></svg></g></svg></g><defs></defs></svg><rect width="395.52" height="76.07923612176039" fill="none" stroke="none" visibility="hidden"></rect></g></svg></g></svg>